<svg id="visual" viewBox="0 0 900 600" width="900" height="600" xmlns="http://www.w3.org/2000/svg" xmlns:xlink="http://www.w3.org/1999/xlink" version="1.1"><rect x="0" y="0" width="900" height="600" fill="#001122"></rect><defs><linearGradient id="grad1_0" x1="33.3%" y1="0%" x2="100%" y2="100%"><stop offset="20%" stop-color="#001122" stop-opacity="1"></stop><stop offset="80%" stop-color="#001122" stop-opacity="1"></stop></linearGradient></defs><defs><linearGradient id="grad2_0" x1="0%" y1="0%" x2="66.7%" y2="100%"><stop offset="20%" stop-color="#001122" stop-opacity="1"></stop><stop offset="80%" stop-color="#001122" stop-opacity="1"></stop></linearGradient></defs><g transform="translate(900, 0)"><path d="M0 162.2C-22.7 161.4 -45.4 160.6 -62.1 149.9C-78.8 139.2 -89.5 118.6 -102.5 102.5C-115.6 86.5 -131 74.9 -141.4 58.6C-151.7 42.2 -157 21.1 -162.2 0L0 0Z" fill="#FCAF3C"></path></g><g transform="translate(0, 600)"><path d="M0 -162.2C22.6 -160.5 45.3 -158.8 61.2 -147.8C77.2 -136.8 86.4 -116.5 101.8 -101.8C117.2 -87.2 138.8 -78.1 149.9 -62.1C161 -46.1 161.6 -23 162.2 0L0 0Z" fill="#FCAF3C"></path></g></svg>